Coordinates
version=1
nRows=16
nColumns=36
inDegrees=yes

Units are S.I. units (second, meters, Newtons, ...)
If the header above contains a line with 'inDegrees', this indicates whether rotational values are in degrees (yes) or radians (no).

endheader
time	pelvis_tilt	pelvis_list	pelvis_rotation	pelvis_tx	pelvis_ty	pelvis_tz	hip_flexion_r	hip_adduction_r	hip_rotation_r	knee_angle_r	knee_angle_r_beta	ankle_angle_r	subtalar_angle_r	mtp_angle_r	hip_flexion_l	hip_adduction_l	hip_rotation_l	knee_angle_l	knee_angle_l_beta	ankle_angle_l	subtalar_angle_l	mtp_angle_l	lumbar_extension	lumbar_bending	lumbar_rotation	arm_flex_r	arm_add_r	arm_rot_r	elbow_flex_r	pro_sup_r	arm_flex_l	arm_add_l	arm_rot_l	elbow_flex_l	pro_sup_l
      3.85000000	     -0.62648434	      3.26979759	     -3.27389606	      0.62162365	      0.87693962	     -0.06765480	      9.92988149	     -6.31623268	    -12.10343639	     11.86903530	      0.20715374	      7.49748191	     -0.44758034	     -7.49999987	     11.24099662	     -7.89654104	    -11.84190541	     22.82006833	      0.39828533	      9.33408194	     -9.50533735	     -7.49999987	     -8.78609652	     -1.71008285	     -5.81329139	     -9.69009949	    -19.11805542	     36.14585494	     10.76380558	     45.17952659	    -15.36028312	    -20.47020474	     10.80117882	     27.94256681	     51.14148158
      3.86666670	     -0.67891574	      3.14851405	     -4.17385303	      0.62053861	      0.87427151	     -0.06547113	      8.89840105	     -5.68902453	    -11.80322344	      9.76713988	      0.17046875	      7.04778681	      0.37661248	     -7.49999987	      9.68571708	     -7.73033650	    -10.12307722	     24.53513015	      0.42821880	      9.30571257	    -10.16880923	     -7.49999987	     -7.67007896	     -1.55616781	     -6.34144170	    -13.56130068	    -20.34055943	     32.77995702	     12.70057324	     42.66001107	    -21.07886381	    -19.86581431	      5.32492974	     30.54229010	     50.77012262
      3.88333330	     -0.83109603	      2.87546564	     -5.24189958	      0.61719010	      0.86489299	     -0.06571040	      8.56653171	     -4.93159565	    -11.15560976	      8.28804639	      0.14465370	      7.01859119	      0.45170818	     -7.49999987	      8.71543813	     -7.68051220	     -8.31720364	     27.04663870	      0.47205290	     10.16533247	    -10.65134857	     -7.49999987	     -6.73070858	     -1.23978532	     -6.86967138	    -17.05584112	    -21.79534784	     28.79028026	     14.55042575	     41.51030730	    -26.23662820	    -18.92401234	      0.37093187	     32.36297276	     51.57947735
      3.90000000	     -0.66487987	      2.56673681	     -6.32004428	      0.61503496	      0.86495547	     -0.06499855	      8.15294343	     -4.21991658	    -10.59448967	      7.24872543	      0.12651413	      6.78369493	      0.64430333	     -7.49999987	      7.69676293	     -7.49245335	     -6.41795424	     29.48522808	      0.51461431	     10.34060024	    -11.28904702	     -7.49999987	     -6.39541191	     -1.01844149	     -7.30036949	    -20.44824389	    -23.27917783	     23.42994711	     17.70443756	     42.17184186	    -30.40624005	    -17.74637009	     -4.18721277	     33.35251347	     54.45278726
      3.91666670	     -0.54127888	      2.22208667	     -7.12080648	      0.61543136	      0.86236328	     -0.06520209	      7.85194596	     -3.55257345	     -9.85161249	      6.50151599	      0.11347286	      6.57248648	      0.18739773	     -7.49999987	      6.88380271	     -7.25641251	     -4.42416025	     32.16844326	      0.56144525	     10.91145390	    -11.34439807	     -7.49999987	     -6.09307052	     -0.68741442	     -7.51072892	    -23.92396105	    -24.43548992	     18.82831014	     19.84518966	     43.34990535	    -33.37482698	    -16.84098206	     -6.16423450	     32.85419948	     56.02426589
      3.93333330	     -0.25372487	      1.77966269	     -7.94653967	      0.61366867	      0.86405234	     -0.06554010	      7.45513254	     -2.96183980	     -9.49925219	      5.96593953	      0.10412529	      6.24375484	      0.46644963	     -7.49999987	      5.88681800	     -6.87232359	     -2.30927659	     34.66581499	      0.60503261	     11.65449745	    -10.24470099	     -7.49999987	     -5.79281629	     -0.26652844	     -7.69830267	    -26.29155640	    -25.24664961	     15.63019013	     19.98131878	     44.40153694	    -35.14697156	    -15.73056113	     -7.08028559	     31.07406686	     56.66554977
      3.95000000	      0.19616306	      1.35817597	     -8.89176031	      0.60820370	      0.86487101	     -0.06707348	      7.17799600	     -2.40389051	     -8.56600420	      5.78330030	      0.10093763	      5.52278686	     -0.28870759	     -7.49999987	      4.86900330	     -6.18663760	     -0.30617378	     36.84714446	      0.64310399	     12.22979427	     -8.91797858	     -7.49999987	     -5.90644422	      0.15394840	     -7.80967848	    -27.46549598	    -25.93119976	     12.80274455	     19.69263903	     44.63066040	    -35.18865423	    -14.79113343	     -5.43980580	     27.65435796	     57.25386578
      3.96666670	      0.59524427	      1.06809263	     -9.74991718	      0.59966466	      0.86809006	     -0.07014011	      7.29191527	     -2.13953826	     -8.17603082	      5.68242928	      0.09917710	      4.58718583	     -0.38558251	     -7.49999987	      4.24290178	     -5.06769267	      1.83725708	     38.69263457	      0.67531387	     12.98040864	     -6.35446960	     -7.49999987	     -6.19811411	      0.43624849	     -8.14330394	    -27.19320321	    -26.47899310	     11.03118250	     18.34637209	     45.16199038	    -34.10824108	    -13.94238371	     -2.84018754	     23.69331748	     57.52578871
      3.98333330	      1.11169886	      0.52301357	    -10.39230635	      0.59463809	      0.86109712	     -0.07248439	      7.50361458	     -1.76798424	     -7.73708040	      6.05399878	      0.10566221	      3.95267708	     -0.64095330	     -7.49999987	      3.52562196	     -4.01367651	      4.08387095	     40.46443251	      0.70623758	     13.96490073	     -3.59183090	     -7.49999987	     -7.05515509	      1.00879333	     -8.83633709	    -26.33083214	    -27.32056654	     10.53323573	     17.39465121	     44.87874908	    -33.46879165	    -13.05873675	     -1.79475229	     22.18462483	     57.57954508
      4.00000000	      1.50728890	      0.21958746	    -11.09278695	      0.58914444	      0.86298890	     -0.07665278	      7.84891920	     -1.70745322	     -7.03629177	      6.54280649	      0.11419352	      3.08770032	     -0.79847602	     -7.49999987	      2.97225036	     -2.62599197	      6.08164931	     41.30377343	      0.72088684	     14.82200934	      0.11915472	     -7.49999987	     -7.81781829	      1.23801179	     -9.39768455	    -24.48808544	    -27.61165916	      9.89275497	     15.19137005	     44.65214202	    -31.65500000	    -12.22994321	     -0.11579378	     19.30123648	     57.75535425
      4.01666670	      1.31484290	      0.18927140	    -11.95269954	      0.58306645	      0.86556461	     -0.07901367	      8.97014507	     -1.79250712	     -6.26504007	      6.88299797	      0.12013098	      2.42747809	     -0.84465403	     -7.49999987	      2.81800874	     -1.12736285	      7.84773691	     41.07261486	      0.71685236	     15.49025050	      2.78664112	     -7.49999987	     -7.42429224	      1.35091923	     -8.80039719	    -23.01734115	    -27.33715094	     11.74870789	     12.27968275	     40.67078820	    -28.10080899	    -12.76795419	     16.31865046	     13.89660867	     48.45869078
      4.03333330	      1.28189731	     -0.21997837	    -12.42909899	      0.57891879	      0.85939304	     -0.08325666	      9.77624637	     -1.53639213	     -5.77180121	      7.20350558	      0.12572489	      1.69299744	     -1.03713462	     -7.49999987	      2.25046764	     -0.24262016	      9.61080643	     39.93547475	      0.69700552	     16.23769863	      5.09536839	     -7.49999987	     -7.66717649	      1.68073502	     -9.18114733	    -21.32845541	    -27.33503459	     11.76353724	     11.03051013	     40.70387262	    -26.31554415	    -12.29038457	     17.14911768	     13.47913624	     48.69927331
      4.05000000	      1.36079438	     -0.39411454	    -13.03242227	      0.57342044	      0.86100247	     -0.08793745	     10.40730676	     -1.56951863	     -5.22159336	      7.36139631	      0.12848060	      0.90593441	     -1.52475043	     -7.49999987	      1.45237138	      0.80936622	     11.49401651	     38.21620284	      0.66699857	     16.93169715	      5.76922461	     -7.49999987	     -7.70813210	      1.70470485	     -9.32892358	    -19.70611075	    -26.95971154	     11.25009720	     10.64178039	     41.70516993	    -24.16617010	    -11.92375455	     17.46175425	     13.51136432	     49.61947566
      4.06666670	      1.16061202	     -0.47583403	    -13.42542505	      0.56198632	      0.86079420	     -0.09346434	     11.59099019	     -1.66445084	     -4.84976798	      7.58437372	      0.13237229	      0.55345803	     -1.50091898	     -7.49999987	      1.17868453	      1.71138408	     13.30296204	     36.50347732	      0.63710587	     18.44010358	      5.54312176	     -7.49999987	     -7.39818501	      1.59591693	     -9.93745761	    -16.73417338	    -26.54492197	     14.18040627	      9.62028960	     42.58203376	    -21.42740307	    -12.17190215	     25.24764311	     13.12862507	     50.63692704
      4.08333330	      1.21353915	     -0.65174543	    -14.02355877	      0.55390421	      0.85486737	     -0.09994065	     12.47040221	     -1.70257489	     -4.39571508	      7.80714877	      0.13626045	      0.09252565	     -1.70711824	     -7.49999987	      0.94453088	      2.50912106	     14.74070329	     35.22309486	      0.61475898	     19.99751874	      4.87681734	     -7.49999987	     -7.51889891	      1.61392898	    -10.42218247	    -14.32245072	    -26.20087319	     14.35887412	     10.37770441	     41.46618104	    -18.61333852	    -12.40836017	     29.46496166	     14.24074195	     48.77327412
      4.10000000	      1.13314940	     -0.72446098	    -14.75524061	      0.54413197	      0.85185382	     -0.10521274	     13.53854322	     -1.78155759	     -4.10544451	      8.06344465	      0.14073366	      0.06212381	     -1.65382882	     -7.49999987	      1.15215269	      3.22166250	     15.49653766	     34.19812700	      0.59686991	     21.89374643	      4.05062712	     -7.49999987	     -7.57660556	      1.48787530	    -10.69782595	    -12.05522289	    -25.54080471	     14.34387041	     11.77502833	     41.56490873	    -15.54105096	    -12.49720474	     29.57309735	     15.43690309	     48.81990382
